
<svg version="1.0" xmlns="http://www.w3.org/2000/svg"
 width="720.000000pt" height="720.000000pt" viewBox="0 0 720.000000 720.000000"
 preserveAspectRatio="xMidYMid meet">

<g transform="translate(0.000000,720.000000) scale(0.100000,-0.100000)"
fill="#fff" stroke="none">
<path d="M1485 6431 c-6 -21 35 -81 100 -146 11 -12 47 -52 80 -89 33 -37 70
-79 83 -92 12 -14 22 -29 22 -34 0 -4 15 -17 33 -27 17 -11 39 -33 47 -49 18
-35 41 -55 57 -49 7 2 10 -6 8 -20 -1 -14 1 -22 5 -20 5 3 10 -2 14 -10 3 -8
12 -15 21 -15 13 0 19 -12 16 -32 0 -5 5 -8 13 -8 25 0 180 -156 173 -174 -3
-8 -1 -18 5 -22 7 -4 8 -3 4 4 -4 7 -4 12 1 12 11 0 379 -375 386 -394 4 -9
11 -16 16 -16 5 0 12 -9 16 -20 3 -11 12 -19 18 -17 7 1 11 -8 9 -24 -1 -18 7
-34 30 -55 l33 -29 -29 32 c-39 44 -28 51 14 10 18 -17 37 -32 41 -32 5 0 10
-4 12 -10 1 -5 18 -26 38 -47 21 -20 35 -39 32 -42 -3 -3 2 -8 11 -12 9 -3 14
-9 12 -13 -2 -3 41 -46 94 -96 87 -79 123 -120 88 -99 -7 4 -8 3 -4 -5 4 -6
11 -9 15 -7 15 10 53 -26 48 -45 -4 -13 0 -19 12 -19 19 0 121 -101 121 -120
0 -6 4 -9 9 -6 8 5 17 -7 19 -27 2 -12 29 -37 41 -37 6 0 17 -15 24 -32 8 -18
21 -39 30 -47 10 -7 17 -17 17 -22 0 -5 16 -26 35 -46 25 -27 31 -39 22 -45
-8 -5 -8 -8 -1 -8 6 0 23 -17 38 -37 14 -21 49 -65 76 -98 28 -33 58 -72 68
-86 9 -14 31 -43 49 -65 18 -21 69 -85 113 -141 45 -57 84 -103 86 -103 10 0
2 19 -18 42 -41 45 -64 73 -108 134 -24 32 -48 62 -54 66 -6 4 -8 10 -4 13 3
4 14 -2 23 -12 39 -43 153 -193 187 -243 20 -30 45 -64 57 -74 21 -19 30 -53
11 -41 -20 13 -9 -6 22 -36 18 -17 34 -26 36 -19 3 7 9 4 18 -7 16 -21 18 -37
4 -28 -6 3 -7 -1 -4 -10 4 -9 13 -14 20 -11 8 3 13 2 13 -2 -6 -38 31 -84 60
-75 12 4 13 3 2 -5 -9 -7 -10 -12 -2 -16 6 -4 9 -12 6 -17 -4 -5 -1 -9 6 -9 7
0 9 -3 6 -7 -8 -8 12 -33 26 -33 6 0 2 7 -9 15 -10 8 -14 15 -8 15 15 0 34
-22 34 -40 0 -8 17 -36 38 -61 20 -26 49 -62 64 -80 15 -19 28 -39 28 -46 0
-6 4 -13 8 -15 26 -10 169 -251 153 -256 -8 -3 -8 -9 0 -23 5 -11 14 -17 20
-14 5 4 9 -1 9 -10 0 -10 5 -13 12 -9 7 4 8 3 4 -5 -5 -8 -28 6 -71 44 -35 30
-65 55 -67 55 -1 0 -39 34 -82 76 -44 42 -95 87 -113 101 -18 14 -30 30 -26
36 3 5 2 7 -4 4 -5 -3 -30 13 -55 36 -25 23 -88 80 -139 127 -52 47 -95 88
-97 93 -2 4 -8 7 -14 7 -5 0 56 -64 137 -142 81 -79 182 -177 224 -218 42 -41
97 -91 121 -111 25 -20 60 -50 79 -68 18 -17 37 -31 42 -31 5 0 9 -8 9 -18 0
-11 12 -24 26 -30 14 -7 22 -17 19 -22 -3 -6 -2 -10 3 -10 5 0 19 -9 31 -19
12 -11 32 -26 44 -34 12 -8 19 -18 15 -22 -6 -6 -73 45 -138 105 -9 8 -41 35
-71 60 -29 25 -155 144 -278 265 -124 121 -247 240 -275 265 -82 74 -183 178
-189 194 -4 9 -13 16 -22 16 -8 0 -15 5 -15 10 0 21 24 8 70 -37 26 -27 57
-64 69 -83 11 -19 21 -31 21 -26 0 5 10 1 23 -10 12 -10 5 0 -15 22 -39 41
-51 67 -20 43 15 -13 16 -12 4 3 -8 10 -17 16 -21 15 -4 -1 -36 27 -70 62 -41
43 -65 61 -70 53 -5 -8 -17 -2 -37 19 -16 17 -63 59 -104 92 -104 85 -260 238
-260 254 0 8 -4 11 -10 8 -5 -3 -10 -2 -10 3 0 5 -45 55 -100 112 -55 58 -100
110 -100 118 0 7 -4 10 -10 7 -6 -3 -10 4 -10 16 0 12 -2 20 -5 17 -7 -6 -157
140 -180 176 -17 25 -19 26 -36 10 -15 -14 -20 -14 -36 -2 -19 14 -29 38 -15
38 4 0 14 -6 22 -12 8 -7 7 -4 -3 8 -9 11 -17 25 -17 31 0 6 -35 41 -77 79
-43 38 -97 88 -121 111 -24 24 -63 59 -88 79 -24 20 -44 43 -44 51 0 7 -7 16
-16 20 -9 3 -48 39 -87 81 -67 69 -105 107 -241 237 -28 28 -69 73 -91 100
-22 28 -85 93 -141 145 -73 69 -97 97 -86 101 9 3 11 8 6 12 -23 14 -55 -43
-36 -66 14 -18 43 -142 52 -222 l7 -70 2 84 c0 46 3 82 5 80 9 -9 26 -194 31
-321 12 -332 16 -478 20 -683 19 -940 21 -1617 5 -1659 -9 -24 -8 -28 10 -33
11 -3 20 -10 20 -15 0 -6 9 -8 20 -5 10 3 24 -1 30 -8 7 -8 36 -19 66 -25 30
-6 52 -16 48 -21 -3 -6 5 -7 22 -3 19 5 25 3 20 -4 -4 -7 3 -11 21 -11 48 0
113 -13 108 -21 -2 -4 7 -5 20 -2 14 2 33 1 42 -3 10 -5 29 -10 43 -12 13 -2
49 -13 80 -23 30 -10 72 -21 92 -25 21 -4 36 -11 33 -15 -2 -4 8 -7 24 -8 16
0 62 -12 102 -26 69 -23 160 -48 307 -83 34 -8 68 -21 75 -28 8 -7 25 -11 40
-8 16 3 27 1 27 -6 0 -6 7 -11 15 -11 8 0 15 -4 15 -10 0 -5 3 -9 8 -8 4 0 15
-2 24 -6 9 -4 26 -2 38 4 13 7 20 8 16 2 -9 -15 50 -35 80 -28 15 4 23 3 20
-3 -3 -5 1 -12 10 -15 23 -9 36 -7 29 4 -8 13 -2 13 29 -3 14 -8 23 -17 19
-20 -3 -4 1 -7 11 -7 9 0 14 5 11 10 -3 6 -1 10 4 10 6 0 11 -4 11 -10 0 -10
35 -20 135 -41 33 -7 82 -21 108 -31 27 -10 65 -21 85 -24 21 -3 41 -10 46
-15 6 -5 27 -9 48 -9 22 0 53 -7 70 -16 20 -10 28 -11 22 -3 -5 9 -2 10 12 5
10 -5 30 -9 44 -11 14 -1 36 -3 50 -4 23 -2 24 -3 5 -11 -15 -6 -8 -9 28 -9
28 -1 47 -6 47 -12 0 -8 14 -10 44 -6 33 5 47 3 57 -9 8 -10 24 -14 41 -12 15
3 28 1 28 -4 0 -4 15 -8 33 -8 17 0 41 -7 51 -15 23 -17 40 -20 31 -5 -10 16
7 12 28 -8 15 -12 21 -14 24 -4 3 6 12 12 21 12 13 0 14 -2 4 -9 -17 -10 16
-21 66 -21 17 0 32 -4 32 -10 0 -5 9 -10 20 -10 18 0 77 -14 240 -55 30 -8
102 -26 160 -40 58 -15 114 -30 125 -35 11 -4 40 -13 65 -20 25 -7 57 -17 71
-22 15 -5 49 -11 75 -13 27 -2 55 -3 62 -4 7 -1 10 -6 7 -11 -4 -6 -10 -8 -15
-5 -11 7 -111 18 -172 19 -25 1 -44 4 -41 9 2 4 1 8 -4 8 -4 1 -21 3 -36 5
-43 5 -133 24 -212 44 -38 10 -90 22 -115 25 -25 4 -53 12 -63 17 -27 14 -124
38 -153 38 -14 0 -22 4 -19 10 3 6 -4 10 -17 10 -13 0 -29 5 -35 11 -5 5 -26
11 -46 12 -19 1 -33 5 -30 10 2 4 -5 7 -17 7 -11 0 -49 9 -83 20 -34 11 -90
21 -123 22 -34 2 -60 6 -57 11 2 4 -16 7 -41 7 -25 0 -46 5 -46 10 0 6 -13 10
-30 10 -48 0 -35 -16 23 -29 109 -24 193 -42 212 -45 11 -2 42 -9 68 -15 27
-6 53 -8 59 -5 6 4 8 3 5 -3 -4 -6 22 -15 63 -22 39 -7 70 -16 70 -20 0 -4 40
-15 89 -24 48 -9 101 -23 117 -31 24 -12 170 -48 382 -96 23 -6 67 -10 97 -10
32 0 55 -4 55 -11 0 -5 4 -8 8 -5 5 3 47 -1 95 -8 85 -13 87 -12 107 11 11 13
20 34 20 46 0 13 3 27 7 30 8 9 9 140 0 153 -7 13 -8 72 -1 195 3 53 1 154 -5
225 -5 77 -6 130 0 132 12 5 12 42 -1 42 -12 0 -13 27 -1 32 5 2 6 51 1 118
-4 63 -4 135 -1 160 4 25 3 59 -1 75 -4 17 -7 76 -5 132 2 84 -1 103 -13 107
-11 3 -11 4 3 5 13 1 17 10 17 37 0 19 -5 45 -11 56 -8 15 -8 19 0 14 7 -5 11
8 11 39 0 28 -4 44 -10 40 -6 -3 -10 -1 -10 4 0 6 4 11 9 11 12 0 12 145 0
177 -6 17 -6 28 0 32 13 8 21 171 9 171 -5 0 -6 5 -2 12 7 10 11 147 13 423 1
28 5 57 10 64 6 9 6 22 1 31 -10 19 -12 136 -11 583 1 191 -1 362 -4 380 -3
17 -8 41 -10 52 -2 11 -4 21 -4 23 -1 3 -133 -98 -146 -112 -5 -6 -37 -31 -70
-56 -33 -25 -61 -48 -63 -52 -2 -5 -8 -8 -12 -8 -5 0 -26 -16 -47 -36 -21 -19
-50 -42 -65 -50 -16 -8 -28 -19 -28 -24 0 -6 -7 -10 -15 -10 -25 0 -17 17 16
32 17 9 29 19 28 24 -1 5 9 14 22 21 13 7 28 18 34 26 5 7 18 16 28 20 11 4
15 12 11 18 -4 8 -3 9 4 5 7 -4 28 10 51 34 25 26 44 39 52 34 7 -4 10 -3 6 3
-8 13 27 46 38 36 4 -5 5 -2 1 4 -4 8 10 24 39 45 56 39 60 62 10 52 -24 -4
-35 -2 -35 6 0 7 -8 9 -20 5 -12 -4 -53 -1 -93 5 -67 11 -107 22 -314 84 -45
14 -97 27 -115 30 -30 5 -147 38 -283 80 -69 21 -354 101 -445 125 -41 11
-118 31 -170 46 -52 14 -120 33 -150 41 -30 8 -64 17 -75 19 -11 2 -93 24
-183 49 -89 25 -173 48 -185 50 -12 3 -67 18 -122 34 -55 17 -192 55 -305 86
-113 31 -226 63 -251 71 -26 8 -56 15 -68 15 -22 0 -162 36 -196 51 -33 15
-147 49 -161 49 -7 0 -16 5 -20 12 -5 7 -3 8 6 3 9 -5 11 -4 6 4 -6 9 -11 9
-21 1 -10 -8 -16 -8 -22 2 -4 8 -35 22 -68 32 -33 10 -75 25 -93 32 -18 8 -51
17 -75 20 -23 4 -51 12 -62 19 -11 7 -23 13 -27 14 -18 4 -156 54 -185 67 -17
8 -45 17 -61 20 -25 5 -31 2 -37 -15z m3465 -1431 c0 -5 -4 -10 -9 -10 -4 0
-20 -11 -36 -26 -15 -14 -30 -23 -33 -19 -6 6 57 64 71 65 4 0 7 -4 7 -10z
m-100 -70 c0 -5 -8 -10 -17 -10 -15 0 -16 2 -3 10 19 12 20 12 20 0z m-25 -30
c8 -13 -5 -13 -25 0 -13 8 -13 10 2 10 9 0 20 -4 23 -10z m-28 -22 c0 -7 -10
-13 -23 -13 -17 0 -20 3 -12 13 6 6 16 12 23 12 6 0 12 -6 12 -12z m-62 -38
c-3 -5 -10 -10 -16 -10 -5 0 -9 5 -9 10 0 6 7 10 16 10 8 0 12 -4 9 -10z m-50
-30 c-3 -5 -14 -10 -23 -10 -15 0 -15 2 -2 10 20 13 33 13 25 0z m-80 -46
c-10 -8 -20 -12 -23 -10 -7 8 23 34 32 28 5 -3 1 -11 -9 -18z m-846 -19 c-9
-8 -119 -22 -119 -14 0 7 32 13 99 17 13 1 22 0 20 -3z m157 -13 c-3 -5 61 -9
142 -11 80 -1 149 -6 152 -10 3 -5 15 -11 28 -15 12 -4 20 -11 17 -16 -3 -5
-1 -11 5 -15 5 -3 10 1 10 9 0 9 4 16 9 16 4 0 8 -60 8 -132 -2 -287 6 -754
13 -763 37 -52 2 -51 -46 1 -17 19 -35 34 -40 34 -5 0 -44 30 -86 68 -42 37
-115 96 -162 132 -48 36 -93 71 -101 78 -7 6 -16 12 -20 12 -13 0 -75 48 -141
109 -38 35 -125 109 -193 165 -69 55 -152 126 -185 158 -34 31 -85 75 -113 98
-29 23 -53 46 -53 51 0 6 4 8 8 5 13 -8 160 -6 247 3 44 5 112 12 150 15 58 4
63 4 25 -4 -25 -5 -72 -12 -105 -16 -103 -11 -103 -21 0 -18 55 2 115 3 133 3
17 0 40 5 50 10 9 5 49 12 87 16 58 5 151 19 163 24 2 0 1 -3 -2 -7z m-351
-582 c10 -11 16 -20 13 -20 -3 0 -13 9 -23 20 -10 11 -16 20 -13 20 3 0 13 -9
23 -20z m787 -423 c11 -9 14 -18 8 -27 -5 -8 -10 -12 -12 -10 -2 3 -12 15 -22
28 -14 16 -16 22 -5 22 8 0 22 -6 31 -13z m-412 -68 c0 -6 -4 -7 -10 -4 -5 3
-10 11 -10 16 0 6 5 7 10 4 6 -3 10 -11 10 -16z m462 1 c7 -11 17 -20 22 -20
5 0 26 -16 47 -35 46 -41 43 -44 -10 -11 -59 38 -109 86 -88 86 9 0 22 -9 29
-20z m138 -110 c0 -5 -2 -10 -4 -10 -3 0 -8 5 -11 10 -3 6 -1 10 4 10 6 0 11
-4 11 -10z m170 -154 c0 -2 -7 -7 -16 -10 -8 -3 -12 -2 -9 4 6 10 25 14 25 6z
m-1925 -30 c24 3 26 3 10 -5 -18 -8 -18 -9 8 -16 16 -4 46 -8 67 -9 21 0 34
-3 29 -7 -14 -8 67 -33 85 -26 9 4 16 2 16 -3 0 -6 9 -10 19 -10 20 0 37 -17
28 -26 -3 -3 -34 4 -69 15 -159 51 -193 61 -210 61 -10 0 -18 5 -18 11 0 5 -8
9 -17 8 -30 -3 -39 1 -24 10 8 6 22 6 31 1 8 -4 29 -6 45 -4z m355 -118 c8 0
17 -5 20 -9 3 -5 15 -10 25 -12 11 -2 34 -9 50 -16 17 -6 41 -16 55 -21 14 -5
139 -38 278 -74 139 -35 256 -66 259 -70 10 -9 -45 2 -217 45 -85 21 -166 41
-180 45 -61 15 -370 116 -370 121 0 3 15 2 33 -1 17 -3 39 -7 47 -8z m827
-234 c-3 -3 -12 -4 -19 -1 -8 3 -5 6 6 6 11 1 17 -2 13 -5z m648 -344 c3 -5 1
-10 -4 -10 -6 0 -11 5 -11 10 0 6 2 10 4 10 3 0 8 -4 11 -10z m319 -326 c5
-14 4 -15 -9 -4 -17 14 -19 20 -6 20 5 0 12 -7 15 -16z m493 -96 c-3 -7 -5 -2
-5 12 0 14 2 19 5 13 2 -7 2 -19 0 -25z m-1354 -155 c-7 -2 -19 -2 -25 0 -7 3
-2 5 12 5 14 0 19 -2 13 -5z m1324 -329 c-3 -3 -12 -4 -19 -1 -8 3 -5 6 6 6
11 1 17 -2 13 -5z"/>
<path d="M3933 4703 c9 -2 23 -2 30 0 6 3 -1 5 -18 5 -16 0 -22 -2 -12 -5z"/>
<path d="M3768 4689 c-17 -11 30 -11 57 1 16 6 14 8 -12 7 -17 0 -38 -4 -45
-8z"/>
<path d="M2340 5396 c0 -3 14 -14 30 -26 35 -25 40 -20 8 10 -20 18 -38 26
-38 16z"/>
<path d="M1670 5177 c0 -40 4 -67 10 -67 7 0 9 21 4 63 -9 83 -14 85 -14 4z"/>
<path d="M1682 5065 c0 -16 2 -22 5 -12 2 9 2 23 0 30 -3 6 -5 -1 -5 -18z"/>
<path d="M2690 5081 c0 -5 5 -13 10 -16 6 -3 10 -2 10 4 0 5 -4 13 -10 16 -5
3 -10 2 -10 -4z"/>
<path d="M3060 4702 c0 -5 7 -9 15 -9 8 0 12 4 9 9 -3 4 -9 8 -15 8 -5 0 -9
-4 -9 -8z"/>
<path d="M3182 4540 c7 -11 18 -22 26 -25 8 -3 6 4 -5 20 -21 29 -38 34 -21 5z"/>
<path d="M3240 4476 c0 -2 7 -9 15 -16 13 -11 14 -10 9 4 -5 14 -24 23 -24 12z"/>
<path d="M3294 4398 c-4 -7 -4 -10 0 -6 4 3 21 -8 38 -25 30 -31 19 -10 -13
26 -13 15 -18 16 -25 5z"/>
<path d="M3110 4124 c0 -8 4 -13 8 -10 5 3 25 -12 44 -32 19 -20 46 -45 59
-54 13 -10 19 -18 14 -18 -6 0 4 -15 22 -33 99 -102 117 -123 115 -130 -1 -5
1 -6 6 -3 5 3 44 -27 86 -66 42 -39 79 -69 81 -67 5 6 -131 145 -193 198 -28
25 -54 53 -58 63 -3 10 -9 16 -13 13 -5 -2 -17 2 -27 10 -13 10 -15 14 -5 15
8 0 3 9 -12 20 -15 12 -46 41 -69 65 -46 48 -58 54 -58 29z"/>
<path d="M3850 3736 c0 -2 8 -10 18 -17 15 -13 16 -12 3 4 -13 16 -21 21 -21
13z"/>
<path d="M3750 3516 c0 -2 7 -7 16 -10 8 -3 12 -2 9 4 -6 10 -25 14 -25 6z"/>
<path d="M2368 2513 c6 -2 18 -2 25 0 6 3 1 5 -13 5 -14 0 -19 -2 -12 -5z"/>
<path d="M2490 2480 c20 -13 33 -13 25 0 -3 6 -14 10 -23 10 -15 0 -15 -2 -2
-10z"/>
<path d="M3738 2133 c6 -2 18 -2 25 0 6 3 1 5 -13 5 -14 0 -19 -2 -12 -5z"/>
<path d="M3810 2110 c0 -9 39 -25 45 -18 2 2 -7 8 -21 15 -13 6 -24 7 -24 3z"/>
</g>
</svg>
